inDegrees=no
num_controls=7
num_derivatives=13
num_iterations=101
num_multipliers=7
num_parameters=0
num_slacks=7
num_states=26
objective=4.166969
objective_accelerations=0.300306
objective_balance=0.087148
objective_effort=0.293716
objective_height=3.444793
objective_ligament=0.041006
solver_duration=2195.004513
status=Solve_Succeeded
success=true
DataType=double
version=3
OpenSimVersion=4.4-2022-07-23-0e9fedc
endheader
time	/jointset/ground_pelvis/pelvis_tilt/value	/jointset/ground_pelvis/pelvis_tx/value	/jointset/ground_pelvis/pelvis_ty/value	/jointset/hip_l/hip_flexion_l/value	/jointset/hip_l/hip_adduction_l/value	/jointset/hip_l/hip_rotation_l/value	/jointset/back/lumbar_extension/value	/jointset/patellofemoral_l/patellar_flexion_l/value	/jointset/knee_l/knee_flexion_l/value	/jointset/knee_l/knee_adduction_l/value	/jointset/knee_l/knee_rotation_l/value	/jointset/ankle_l/ankle_angle_l/value	/jointset/subtalar_l/subtalar_angle_l/value	/jointset/ground_pelvis/pelvis_tilt/speed	/jointset/ground_pelvis/pelvis_tx/speed	/jointset/ground_pelvis/pelvis_ty/speed	/jointset/hip_l/hip_flexion_l/speed	/jointset/hip_l/hip_adduction_l/speed	/jointset/hip_l/hip_rotation_l/speed	/jointset/back/lumbar_extension/speed	/jointset/patellofemoral_l/patellar_flexion_l/speed	/jointset/knee_l/knee_flexion_l/speed	/jointset/knee_l/knee_adduction_l/speed	/jointset/knee_l/knee_rotation_l/speed	/jointset/ankle_l/ankle_angle_l/speed	/jointset/subtalar_l/subtalar_angle_l/speed	/forceset/tau_hip_flexion_l	/forceset/tau_hip_adduction_l	/forceset/tau_hip_rotation_l	/forceset/tau_knee_flexion_l	/forceset/tau_ankle_angle_l	/forceset/tau_subtalar_angle_l	/forceset/tau_lumbar_extension	lambda_cid13_p0	lambda_cid13_p1	lambda_cid13_p2	lambda_cid13_p3	lambda_cid13_p4	lambda_cid13_p5	lambda_cid14_p0	/jointset/ground_pelvis/pelvis_tilt/accel	/jointset/ground_pelvis/pelvis_tx/accel	/jointset/ground_pelvis/pelvis_ty/accel	/jointset/hip_l/hip_flexion_l/accel	/jointset/hip_l/hip_adduction_l/accel	/jointset/hip_l/hip_rotation_l/accel	/jointset/back/lumbar_extension/accel	/jointset/patellofemoral_l/patellar_flexion_l/accel	/jointset/knee_l/knee_flexion_l/accel	/jointset/knee_l/knee_adduction_l/accel	/jointset/knee_l/knee_rotation_l/accel	/jointset/ankle_l/ankle_angle_l/accel	/jointset/subtalar_l/subtalar_angle_l/accel	gamma_cid13_p0	gamma_cid13_p1	gamma_cid13_p2	gamma_cid13_p3	gamma_cid13_p4	gamma_cid13_p5	gamma_cid14_p0
1.5	-0.2274895615876999	0.0394908433827162	0.8187967263159999	0.8592144523200123	-0.3042445508172886	-0.04374889918565183	-0.302292988096347	0.6730344986762167	0.6730344986762153	-0.1710454880897462	0.1745075914617029	0.2180740229227324	-0.004757163420032448	0.1422653819456578	0.02800718511621678	0.3057948084013772	-1.268986814371848	0.02407854899110085	-0.606336201272165	0.5864733378885595	-1.712805174865886	-1.712805174865865	0.01012792733429044	-0.0002901974674815412	-0.7006067352948838	-0.1048896958833469	-0.1281914871735538	0.03904567626422332	-0.02551990014193869	-0.2310280565900804	0.01353962971599629	0.03858852401503297	0.147555966232794	-33.74534556260823	-15.20503478176339	6.995684897651419	7.80863365828025	-611.4544610930702	-58.34614751518713	-29.22725372301436	0.1670620755385229	0.1413972488424	-0.3055980777654643	-0.757916484000309	0.4812718210719473	-0.4274398850752223	0.9931439735206252	-1.045251109519558	-1.045251109519577	-0.03782306272930312	-0.01708424939817269	-0.4734341956860267	0.4995093808164008	2.446143410903258e-07	9.779791371008111e-07	-1.345569061036657e-06	-3.562386923442814e-08	2.330852396669922e-07	1.066878531860396e-06	2.444445882044395e-07
1.51	-0.226058570508799	0.03977795812856594	0.8218387730697475	0.8464881451948636	-0.3039802773317071	-0.04983297259526244	-0.2963794992637614	0.6558563940286657	0.6558563940286599	-0.1709476508084836	0.1745048035285305	0.2110449851919967	-0.005781890767534576	0.1439219805815845	0.02941005988053691	0.3025549113164239	-1.276098561798909	0.02878295698648579	-0.6103593569257335	0.5961392242987085	-1.722580768714626	-1.722580768714616	0.009391401768649485	-0.0002875996642799406	-0.7051047653129222	-0.1000516980243106	-0.1242254202031982	0.03771285949811674	-0.02537468605639585	-0.2290475400250233	0.01767588943284718	0.03793954907917455	0.1439757536387655	-32.33153988640442	-15.2425990134617	7.083762378054386	7.310191789160625	-608.9855452240103	-58.60959536134177	-30.19070357809108	0.1633427403267359	0.1388931491357813	-0.3421042509355865	-0.6613831418099437	0.4660443432707893	-0.3717044291464776	0.9405303250210764	-0.9085004193396267	-0.9085004193412869	-0.09863751018807762	0.006030322627970434	-0.4235574330301468	0.4764328429328078	1.583734178507719e-07	1.20340675015867e-06	-9.32315121051155e-07	4.129639410933758e-08	1.648102327592672e-07	1.025399722613484e-06	1.979062448125677e-07
1.52	-0.2246113366470077	0.04007893373384022	0.8248466371072306	0.8336960047414921	-0.3036687559552733	-0.05595366776613332	-0.2903719076970237	0.6385875760632499	0.6385875760632789	-0.1708585928241882	0.1745014612789334	0.2039738531554481	-0.006758140565549374	0.1455139385258285	0.03077935700112812	0.2989582651484929	-1.282153480016003	0.03352812716182674	-0.6136605535252608	0.6052938847192449	-1.730947838434905	-1.730947838434906	0.008372067934746888	-0.000401060763138842	-0.7090255964576551	-0.09519418598584921	-0.1202593532328012	0.0363800427320323	-0.02522947197049451	-0.2270670234600008	0.02181214914970501	0.03729057414334599	0.1403955410447663	-30.92468232538753	-15.28129061414229	7.174698106103861	6.814487823422619	-606.6369989826227	-58.92371434326537	-31.13425478771862	0.1541339372017881	0.1346817200967884	-0.3769478943609673	-0.5465506420072389	0.4894242570631258	-0.2830480742669584	0.8908987755980051	-0.7635462838276479	-0.7635462838275893	-0.09438471638166104	-0.04029602981028136	-0.357994421024729	0.5034122167014607	1.100316304364226e-07	1.353159984646607e-06	-7.060180810275178e-07	8.678236723907854e-08	1.286492656483108e-07	1.013557558625193e-06	1.743395117629551e-07
1.53	-0.223148537897984	0.04039341109260233	0.8278167823300928	0.8208487489717685	-0.3033094769975241	-0.06210440520328139	-0.284275405065739	0.6212423858088316	0.6212423858088031	-0.1707804748077637	0.1744967956192137	0.1968665173277474	-0.007685551911309911	0.1470319095618081	0.03210772347626822	0.2950145401254285	-1.287104062232755	0.03834573870004075	-0.6164069823494285	0.6139124009541093	-1.737830120797544	-1.73783012079753	0.007260925046454422	-0.0005293106026530392	-0.7123327261586828	-0.09026760406688041	-0.1161761362505264	0.03492356958551993	-0.02512322922145365	-0.2251838247160596	0.02615651089583208	0.03654092732960833	0.1367222917353254	-29.45347702209681	-15.28418641693979	7.256109951783637	6.283795759833752	-604.2839620143841	-59.20214549400432	-32.05378369313689	0.1485538647785487	0.1306764885598082	-0.411495597535433	-0.4402587658664812	0.4806114141680671	-0.2582639585765677	0.8331919595925121	-0.6115905907707372	-0.6115905907686032	-0.1178986120054478	0.001448803614931121	-0.3007212155068517	0.4902011404609804	1.019576748363528e-07	1.422509191904005e-06	-6.783627472133602e-07	9.886940701641853e-08	1.266094658214209e-07	1.033204330224187e-06	1.751801147019928e-07
